<?xml version="1.0" encoding="utf-8"?>
<!-- Generator: Adobe Illustrator 27.2.0, SVG Export Plug-In . SVG Version: 6.00 Build 0)  -->
<svg version="1.1" id="Layer_1" xmlns="http://www.w3.org/2000/svg" xmlns:xlink="http://www.w3.org/1999/xlink" x="0px" y="0px"
	 viewBox="0 0 229.66 71.27" style="enable-background:new 0 0 229.66 71.27;" xml:space="preserve">
<style type="text/css">
	.st0{fill:url(#SVGID_1_);}
	.st1{fill:#88AB4D;}
	.st2{fill:url(#SVGID_00000101808304579312610580000017394129514188827786_);}
	.st3{fill:#454A50;}
	.st4{fill:#E6E7E8;}
	.st5{opacity:0.06;fill:#0F0F0F;enable-background:new    ;}
	.st6{fill:#8BC66F;}
	.st7{fill:#F4DB6E;}
	.st8{fill:#E16377;}
	.st9{fill:#00AEEF;stroke:#414042;stroke-width:0.3081;stroke-miterlimit:10;}
	.st10{fill:#00A651;stroke:#414042;stroke-width:0.3081;stroke-miterlimit:10;}
	.st11{fill:#FFF200;stroke:#414042;stroke-width:0.3081;stroke-miterlimit:10;}
	.st12{fill:none;stroke:#414042;stroke-width:0.5293;stroke-miterlimit:10;}
	.st13{fill:none;stroke:#6D6E71;stroke-width:0.8472;stroke-miterlimit:10;}
	.st14{fill:none;stroke:#414042;stroke-width:0.2118;stroke-miterlimit:10;}
	.st15{fill:none;stroke:#6D6E71;stroke-width:1.2707;stroke-miterlimit:10;}
	.st16{fill:#414042;}
	.st17{fill:none;stroke:#39B54A;stroke-width:0.9179;stroke-miterlimit:10;}
	.st18{fill:none;stroke:#1C75BC;stroke-width:0.9179;stroke-miterlimit:10;}
	.st19{fill:none;stroke:#662D91;stroke-width:0.9179;stroke-miterlimit:10;}
	.st20{fill:none;stroke:#BE1E2D;stroke-width:0.9179;stroke-miterlimit:10;}
	.st21{fill:none;stroke:#F7941D;stroke-width:0.9179;stroke-miterlimit:10;}
	.st22{fill:none;stroke:#BE1E2D;stroke-width:0.8472;stroke-miterlimit:10;}
	.st23{fill:none;stroke:#39B54A;stroke-width:0.3259;stroke-miterlimit:10;}
	.st24{fill:none;stroke:#1C75BC;stroke-width:0.3259;stroke-miterlimit:10;}
	.st25{fill:none;stroke:#662D91;stroke-width:0.3259;stroke-miterlimit:10;}
	.st26{fill:none;stroke:#BE1E2D;stroke-width:0.3259;stroke-miterlimit:10;}
	.st27{fill:none;stroke:#F7941D;stroke-width:0.3259;stroke-miterlimit:10;}
	.st28{fill:none;stroke:#BE1E2D;stroke-width:0.3007;stroke-miterlimit:10;}
	.st29{fill:#27AAE1;}
	.st30{fill:#6D6E71;}
	.st31{fill:#00AEEF;stroke:#414042;stroke-width:0.1681;stroke-miterlimit:10;}
	.st32{fill:#00A651;stroke:#414042;stroke-width:0.1681;stroke-miterlimit:10;}
	.st33{fill:#FFF200;stroke:#414042;stroke-width:0.1681;stroke-miterlimit:10;}
	.st34{fill:none;stroke:#414042;stroke-width:0.2888;stroke-miterlimit:10;}
	.st35{fill:none;stroke:#6D6E71;stroke-width:0.4622;stroke-miterlimit:10;}
	.st36{fill:none;stroke:#414042;stroke-width:0.1155;stroke-miterlimit:10;}
	.st37{fill:none;stroke:#6D6E71;stroke-width:0.6933;stroke-miterlimit:10;}
	.st38{fill:none;stroke:#39B54A;stroke-width:0.5008;stroke-miterlimit:10;}
	.st39{fill:none;stroke:#1C75BC;stroke-width:0.5008;stroke-miterlimit:10;}
	.st40{fill:none;stroke:#662D91;stroke-width:0.5008;stroke-miterlimit:10;}
	.st41{fill:none;stroke:#BE1E2D;stroke-width:0.5008;stroke-miterlimit:10;}
	.st42{fill:none;stroke:#F7941D;stroke-width:0.5008;stroke-miterlimit:10;}
	.st43{fill:none;stroke:#BE1E2D;stroke-width:0.4622;stroke-miterlimit:10;}
	.st44{fill:#00A651;}
	.st45{font-family:'Courier-Bold';}
	.st46{font-size:16px;}
	.st47{fill:none;}
	.st48{fill:#939598;}
	.st49{font-size:9px;}
</style>
<symbol  id="Button_4_-_Green" viewBox="-72.51 -16.5 145.01 33">
	<g>
		<g>
			<linearGradient id="SVGID_1_" gradientUnits="userSpaceOnUse" x1="4.501343e-04" y1="-14.7273" x2="4.501343e-04" y2="16.303">
				<stop  offset="0" style="stop-color:#EDED95"/>
				<stop  offset="1" style="stop-color:#A8D058"/>
			</linearGradient>
			<path class="st0" d="M-56.01-16c-8.82,0-16,7.18-16,16s7.18,16,16,16H56.01c8.82,0,16-7.18,16-16s-7.18-16-16-16H-56.01z"/>
			<path class="st1" d="M56.01,15.5c8.55,0,15.5-6.95,15.5-15.5s-6.95-15.5-15.5-15.5H-56.01c-8.55,0-15.5,6.95-15.5,15.5
				s6.95,15.5,15.5,15.5H56.01 M56.01,16.5H-56.01c-9.11,0-16.5-7.39-16.5-16.5c0-9.11,7.39-16.5,16.5-16.5H56.01
				c9.11,0,16.5,7.39,16.5,16.5C72.51,9.11,65.12,16.5,56.01,16.5L56.01,16.5z"/>
		</g>
	</g>
	<g>
		
			<linearGradient id="SVGID_00000094588353961223209210000007121260910675884947_" gradientUnits="userSpaceOnUse" x1="-5.000000e-04" y1="17.9678" x2="-5.000000e-04" y2="-5.0322">
			<stop  offset="0" style="stop-color:#FEFAD6"/>
			<stop  offset="1" style="stop-color:#000000"/>
		</linearGradient>
		<path style="fill:url(#SVGID_00000094588353961223209210000007121260910675884947_);" d="M65.59,6.06c0-4.33-4.5-7.87-10-7.87
			H-55.59c-5.5,0-10,3.54-10,7.87c0,4.32,4.5,7.86,10,7.86H55.58C61.08,13.92,65.59,10.38,65.59,6.06z"/>
	</g>
</symbol>
<g>
	<g>
		<g>
			<path class="st3" d="M74.36,13.24l-0.02,47.21l-58.63-0.02l0.01-41.5l-0.03,0l0-5.3l0.05,0c-0.04-0.13-0.05-0.27-0.05-0.41
				c0-1.03,0.82-1.86,1.84-1.86l54.99,0.02C73.54,11.38,74.36,12.21,74.36,13.24z"/>
			<rect x="16.76" y="18.65" class="st4" width="56.53" height="40.56"/>
			<rect x="16.77" y="18.65" class="st5" width="56.53" height="2.41"/>
		</g>
		<g>
			<ellipse class="st6" cx="29.28" cy="15.04" rx="1.39" ry="1.5"/>
			<ellipse class="st7" cx="24.22" cy="15.04" rx="1.39" ry="1.5"/>
			<ellipse class="st8" cx="19.16" cy="15.04" rx="1.39" ry="1.5"/>
		</g>
		<g>
			<path class="st31" d="M31.37,33.89l-0.03,0l-11.59,0l-0.33,0l0-10.02c3.97,0.01,7.94,0.03,11.91,0.04"/>
			<polyline class="st32" points="31.34,33.86 27.29,29.37 24.57,32.38 22.84,30.46 19.75,33.89 31.34,33.89 31.37,33.89 			"/>
			<ellipse class="st33" cx="21.9" cy="25.8" rx="1.62" ry="1.32"/>
		</g>
		
			<use xlink:href="#Button_4_-_Green"  width="145.01" height="33" x="-72.51" y="-16.5" transform="matrix(0.0659 2.291942e-05 2.261797e-05 -0.0668 31.7187 55.4095)" style="overflow:visible;"/>
		<g>
			<line class="st35" x1="36.18" y1="28.9" x2="32.42" y2="28.9"/>
			<line class="st35" x1="40.07" y1="28.9" x2="36.68" y2="28.9"/>
		</g>
		<g>
			<line class="st35" x1="35.22" y1="26.71" x2="32.42" y2="26.71"/>
			<line class="st35" x1="38.45" y1="26.71" x2="35.73" y2="26.71"/>
		</g>
		<g>
			<line class="st35" x1="34.25" y1="27.8" x2="32.42" y2="27.8"/>
			<line class="st35" x1="37.09" y1="27.8" x2="34.84" y2="27.8"/>
			<line class="st35" x1="39.51" y1="27.8" x2="37.68" y2="27.8"/>
		</g>
		<g>
			<line class="st35" x1="34.25" y1="29.99" x2="32.46" y2="29.99"/>
			<line class="st35" x1="37.32" y1="29.99" x2="34.61" y2="29.99"/>
			<line class="st35" x1="40.4" y1="29.99" x2="38.06" y2="29.99"/>
		</g>
		<polyline class="st36" points="31.38,23.83 31.37,33.93 31.37,33.96 		"/>
		<g>
			<g>
				<line class="st37" x1="27.07" y1="44.88" x2="19.51" y2="44.88"/>
				<g>
					<line class="st37" x1="26.26" y1="42.34" x2="24.23" y2="42.34"/>
					<line class="st37" x1="28.89" y1="42.34" x2="26.86" y2="42.34"/>
					<line class="st37" x1="23.41" y1="42.34" x2="19.51" y2="42.34"/>
					<line class="st37" x1="29.91" y1="44.88" x2="27.87" y2="44.88"/>
					<line class="st37" x1="21.55" y1="50.01" x2="19.51" y2="50.01"/>
					<line class="st37" x1="24.93" y1="50.01" x2="22.14" y2="50.01"/>
				</g>
				<line class="st37" x1="22.7" y1="44.88" x2="19.51" y2="44.88"/>
				<line class="st37" x1="24.84" y1="39.99" x2="22.81" y2="39.99"/>
				<line class="st37" x1="29.53" y1="40" x2="26.35" y2="39.99"/>
				<line class="st37" x1="21.55" y1="39.99" x2="19.51" y2="39.99"/>
				<g>
					<line class="st37" x1="29.82" y1="37.58" x2="22.26" y2="37.57"/>
					<line class="st37" x1="21.55" y1="37.57" x2="19.51" y2="37.57"/>
				</g>
				<g>
					<line class="st37" x1="24.84" y1="47.46" x2="22.8" y2="47.46"/>
					<line class="st37" x1="29.53" y1="47.46" x2="26.34" y2="47.46"/>
					<line class="st37" x1="21.55" y1="47.46" x2="19.51" y2="47.45"/>
				</g>
			</g>
			<g>
				<line class="st37" x1="41.1" y1="42.72" x2="33.54" y2="42.71"/>
				<g>
					<line class="st37" x1="40.29" y1="45.25" x2="38.25" y2="45.25"/>
					<line class="st37" x1="42.92" y1="45.25" x2="40.88" y2="45.25"/>
					<line class="st37" x1="37.43" y1="45.25" x2="33.53" y2="45.25"/>
					<line class="st37" x1="43.93" y1="42.72" x2="41.9" y2="42.72"/>
					<line class="st37" x1="35.57" y1="37.58" x2="33.54" y2="37.58"/>
					<line class="st37" x1="38.96" y1="37.58" x2="36.17" y2="37.58"/>
				</g>
				<line class="st37" x1="36.72" y1="42.72" x2="33.54" y2="42.71"/>
				<line class="st37" x1="38.86" y1="47.6" x2="36.83" y2="47.6"/>
				<line class="st37" x1="43.55" y1="47.6" x2="40.37" y2="47.6"/>
				<line class="st37" x1="35.57" y1="47.6" x2="33.53" y2="47.6"/>
				<g>
					<line class="st37" x1="43.84" y1="50.02" x2="36.28" y2="50.02"/>
					<line class="st37" x1="35.57" y1="50.02" x2="33.53" y2="50.02"/>
				</g>
				<g>
					<line class="st37" x1="38.86" y1="40.14" x2="36.83" y2="40.14"/>
					<line class="st37" x1="43.55" y1="40.14" x2="40.37" y2="40.14"/>
					<line class="st37" x1="35.57" y1="40.14" x2="33.54" y2="40.13"/>
				</g>
			</g>
		</g>
	</g>
	<g>
		<path class="st3" d="M74.62,13.24l-0.02,47.21l-44.79-0.02l0.9-1.23l20.12-27.6l5.63-7.73l2.05-2.81l1.76-2.41l5.3-7.27l7.22,0
			C73.81,11.38,74.62,12.21,74.62,13.24z"/>
		<polygon class="st16" points="73.56,18.65 73.55,59.22 30.72,59.2 50.84,31.6 56.47,23.87 58.52,21.06 60.27,18.65 		"/>
		<polygon class="st5" points="73.56,18.65 73.56,21.06 58.52,21.06 60.27,18.65 		"/>
	</g>
	<g>
		<g>
			<line class="st38" x1="71.78" y1="35.47" x2="63.96" y2="35.47"/>
			<line class="st39" x1="62.35" y1="35.47" x2="54.53" y2="35.47"/>
			<line class="st40" x1="52.51" y1="35.47" x2="48.07" y2="35.47"/>
		</g>
		<g>
			<line class="st40" x1="63.34" y1="31.61" x2="55.52" y2="31.6"/>
			<line class="st41" x1="52.52" y1="31.6" x2="50.84" y2="31.6"/>
			<line class="st42" x1="71.78" y1="31.61" x2="66.1" y2="31.61"/>
		</g>
		<g>
			<line class="st41" x1="71.78" y1="43.21" x2="63.95" y2="43.2"/>
			<line class="st42" x1="62.88" y1="43.2" x2="58.44" y2="43.2"/>
			<line class="st38" x1="57.45" y1="43.2" x2="51.77" y2="43.2"/>
		</g>
		<g>
			<line class="st42" x1="64.09" y1="27.74" x2="56.27" y2="27.74"/>
			<line class="st39" x1="71.78" y1="27.74" x2="66.1" y2="27.74"/>
		</g>
		<g>
			<line class="st39" x1="71.78" y1="39.34" x2="67.33" y2="39.34"/>
			<line class="st41" x1="55.97" y1="39.33" x2="50.29" y2="39.33"/>
			<line class="st40" x1="63.96" y1="39.34" x2="58.27" y2="39.34"/>
		</g>
		<g>
			<line class="st39" x1="71.77" y1="49.73" x2="67.33" y2="49.73"/>
			<line class="st41" x1="57.12" y1="49.78" x2="50.29" y2="49.72"/>
			<line class="st40" x1="63.95" y1="49.73" x2="58.27" y2="49.72"/>
		</g>
		<g>
			<line class="st38" x1="71.77" y1="47.07" x2="63.95" y2="47.07"/>
			<line class="st39" x1="62.35" y1="47.07" x2="54.53" y2="47.06"/>
			<line class="st40" x1="52.51" y1="47.06" x2="48.06" y2="47.06"/>
		</g>
		<g>
			<line class="st40" x1="63.35" y1="23.88" x2="56.47" y2="23.87"/>
			<line class="st42" x1="71.78" y1="23.88" x2="66.1" y2="23.88"/>
		</g>
		<g>
			<line class="st42" x1="64.08" y1="53.99" x2="56.26" y2="53.99"/>
			<line class="st38" x1="55.07" y1="53.99" x2="48.95" y2="53.99"/>
			<line class="st39" x1="71.77" y1="53.99" x2="66.09" y2="53.99"/>
		</g>
	</g>
	<line class="st43" x1="49.67" y1="43.2" x2="45.34" y2="43.2"/>
	<line class="st42" x1="46.63" y1="47.06" x2="40.94" y2="47.06"/>
	<line class="st42" x1="46.34" y1="53.99" x2="41.89" y2="53.98"/>
	<line class="st38" x1="48.93" y1="49.72" x2="41.11" y2="49.72"/>
</g>
<text transform="matrix(1 0 0 1 79.432 25.6525)" class="st44 st45 st46">Viviane Urbano</text>
<rect x="78.97" y="34.56" class="st47" width="100.74" height="17.97"/>
<text transform="matrix(1 0 0 1 78.966 40.3067)"><tspan x="0" y="0" class="st48 st45 st49">I can help you </tspan><tspan x="0" y="9" class="st48 st45 st49">from pixel to code</tspan></text>
</svg>
